<svg width="512" height="512" viewBox="0 0 512 512" fill="none" xmlns="http://www.w3.org/2000/svg">
<path d="M90.6667 7H421.333C471.467 7 512 47.5171 512 97.6303V415.37C512 465.483 471.467 506 421.333 506H90.6667C40.5333 506 0 465.483 0 415.37V97.6303C0 47.5171 40.5333 7 90.6667 7Z" fill="#001E36"/>
<path d="M115.2 356.94V137.508C115.2 136.015 115.84 135.162 117.333 135.162C120.96 135.162 124.373 135.162 129.28 134.949C134.4 134.735 139.733 134.735 145.493 134.522C151.253 134.309 157.44 134.309 164.053 134.096C170.667 133.882 177.067 133.882 183.467 133.882C200.96 133.882 215.467 136.015 227.413 140.493C238.08 144.118 247.893 150.089 256 157.979C262.827 164.803 268.16 173.12 271.573 182.29C274.773 191.246 276.48 200.416 276.48 210.012C276.48 228.351 272.213 243.492 263.68 255.434C255.147 267.375 243.2 276.332 229.333 281.45C214.827 286.781 198.827 288.7 181.333 288.7C176.213 288.7 172.8 288.7 170.667 288.487C168.533 288.274 165.547 288.274 161.493 288.274V356.726C161.707 358.219 160.64 359.499 159.147 359.712C158.933 359.712 158.72 359.712 158.293 359.712H117.76C116.053 359.712 115.2 358.859 115.2 356.94ZM161.707 176.319V247.97C164.693 248.183 167.467 248.396 170.027 248.396H181.333C189.653 248.396 197.973 247.117 205.867 244.558C212.693 242.639 218.667 238.587 223.36 233.256C227.84 227.925 229.973 220.674 229.973 211.291C230.187 204.681 228.48 198.07 225.067 192.312C221.44 186.768 216.32 182.503 210.133 180.157C202.24 176.958 193.707 175.679 184.96 175.892C179.413 175.892 174.507 175.892 170.453 176.105C166.187 175.892 163.2 176.105 161.707 176.319Z" fill="#31A8FF"/>
<path d="M409.6 234.962C403.2 231.55 396.373 229.204 389.12 227.711C381.227 226.005 373.333 224.939 365.227 224.939C360.96 224.726 356.48 225.365 352.427 226.432C349.653 227.071 347.307 228.564 345.813 230.697C344.747 232.403 344.107 234.535 344.107 236.454C344.107 238.374 344.96 240.293 346.24 241.999C348.16 244.344 350.72 246.264 353.493 247.756C358.4 250.315 363.52 252.661 368.64 254.794C380.16 258.632 391.253 263.963 401.493 270.361C408.533 274.839 414.293 280.81 418.347 288.06C421.76 294.884 423.467 302.348 423.253 310.025C423.467 320.047 420.48 330.07 414.933 338.387C408.96 346.917 400.64 353.527 391.04 357.366C380.587 361.844 367.787 364.19 352.427 364.19C342.613 364.19 333.013 363.337 323.413 361.418C315.947 360.138 308.48 357.792 301.653 354.594C300.16 353.741 299.093 352.248 299.307 350.542V313.437C299.307 312.797 299.52 311.944 300.16 311.518C300.8 311.091 301.44 311.304 302.08 311.731C310.4 316.635 319.147 320.047 328.533 322.18C336.64 324.312 345.173 325.379 353.707 325.379C361.813 325.379 367.573 324.312 371.413 322.393C374.827 320.9 377.173 317.275 377.173 313.437C377.173 310.451 375.467 307.679 372.053 304.907C368.64 302.135 361.6 298.936 351.147 294.884C340.267 291.046 330.24 285.928 320.853 279.53C314.24 274.839 308.693 268.655 304.64 261.404C301.227 254.58 299.52 247.117 299.733 239.653C299.733 230.483 302.293 221.74 306.987 213.85C312.32 205.32 320.213 198.496 329.387 194.231C339.413 189.113 352 186.768 367.147 186.768C375.893 186.768 384.853 187.407 393.6 188.687C400 189.54 406.187 191.246 411.947 193.592C412.8 193.805 413.653 194.658 414.08 195.511C414.293 196.364 414.507 197.217 414.507 198.07V232.829C414.507 233.682 414.08 234.535 413.44 234.962C411.52 235.388 410.453 235.388 409.6 234.962Z" fill="#31A8FF"/>
</svg>
